<svg width="170" height="65" viewBox="0 0 170 65" fill="none" xmlns="http://www.w3.org/2000/svg">
<rect width="170" height="65" fill="#656565"/>
<rect width="390" height="1096" transform="translate(-203 -920)" fill="#F0F0F0"/>
<rect y="14.6247" width="170" height="50" rx="15" fill="white"/>
<path d="M78.8059 45.6247V42.9785L83.8596 38.8357C85.7467 37.274 86.4841 36.4498 86.4841 35.1918C86.4841 33.9121 85.6382 33.218 84.4453 33.218C83.274 33.218 82.4715 33.8687 81.3436 35.2569L79.0011 33.3698C80.4977 31.331 81.9509 30.2248 84.6622 30.2248C87.8072 30.2248 89.8895 32.0684 89.8895 34.9532C89.8895 37.4909 88.5881 38.749 85.8985 40.8312L83.4258 42.7399H90.0413V45.6247H78.8059Z" fill="#2C2B31"/>
<path fill-rule="evenodd" clip-rule="evenodd" d="M142.325 38.3609C142.711 37.6278 143.618 37.3463 144.351 37.7321L151.5 41.4949L158.649 37.7321C159.382 37.3463 160.289 37.6278 160.675 38.3609C161.061 39.094 160.78 40.001 160.046 40.3869L152.199 44.5173C151.761 44.7475 151.239 44.7475 150.801 44.5173L142.954 40.3869C142.22 40.001 141.939 39.094 142.325 38.3609Z" fill="#2C2B31"/>
<path d="M77.6767 8.72469C76.9367 8.72469 76.1167 8.43469 75.5367 7.96469L75.9267 7.41469C76.4867 7.83469 77.1067 8.07469 77.7167 8.07469C78.3367 8.07469 78.7867 7.75469 78.7867 7.23469C78.7867 6.71469 78.1767 6.51469 77.4967 6.32469C76.6867 6.09469 75.7867 5.81469 75.7867 4.84469C75.7867 3.95469 76.5267 3.36469 77.5467 3.36469C78.1767 3.36469 78.8767 3.58469 79.4067 3.93469L79.0567 4.51469C78.5767 4.20469 78.0267 4.01469 77.5267 4.01469C76.9167 4.01469 76.5267 4.33469 76.5267 4.78469C76.5267 5.27469 77.1667 5.46469 77.8567 5.67469C78.6567 5.91469 79.5167 6.22469 79.5167 7.17469C79.5167 8.15469 78.7067 8.72469 77.6767 8.72469ZM80.9671 2.32469V1.47469H81.8471V2.32469H80.9671ZM81.0171 8.62469V3.45469H81.7871V8.62469H81.0171ZM83.2741 8.62469V8.13469L86.7041 4.10469H83.3941V3.45469H87.7541V3.94469L84.3141 7.97469H87.7541V8.62469H83.2741ZM89.4442 6.35469C89.5542 7.44469 90.3542 8.07469 91.2642 8.07469C91.9742 8.07469 92.4742 7.78469 92.8942 7.34469L93.3742 7.77469C92.8542 8.35469 92.2242 8.74469 91.2442 8.74469C89.8242 8.74469 88.6642 7.65469 88.6642 6.04469C88.6642 4.54469 89.7142 3.34469 91.1442 3.34469C92.6742 3.34469 93.5542 4.56469 93.5542 6.08469C93.5542 6.15469 93.5542 6.23469 93.5442 6.35469H89.4442ZM89.4442 5.73469H92.7742C92.6842 4.79469 92.1442 3.99469 91.1242 3.99469C90.2342 3.99469 89.5542 4.73469 89.4442 5.73469Z" fill="#2C2B31"/>
</svg>
