<svg width="170" height="65" viewBox="0 0 170 65" fill="none" xmlns="http://www.w3.org/2000/svg">
<rect width="170" height="65" fill="#656565"/>
<rect width="390" height="1096" transform="translate(-17 -919)" fill="#F0F0F0"/>
<rect y="14.839" width="170" height="50" rx="15" fill="white"/>
<path d="M47.7714 45.839V30.656H54.8206C56.5558 30.656 57.9223 31.1332 58.7899 32.0008C59.484 32.6948 59.831 33.5408 59.831 34.6253C59.831 36.3388 58.92 37.2931 57.8355 37.9004C59.5924 38.5728 60.6769 39.5923 60.6769 41.6745C60.6769 44.4508 58.4212 45.839 54.9941 45.839H47.7714ZM51.0249 36.7943H54.1049C55.5798 36.7943 56.5124 36.3171 56.5124 35.1458C56.5124 34.1481 55.7316 33.5841 54.3218 33.5841H51.0249V36.7943ZM51.0249 42.9108H54.9941C56.4691 42.9108 57.3584 42.3903 57.3584 41.219C57.3584 40.1996 56.5992 39.5706 54.8857 39.5706H51.0249V42.9108ZM63.4246 45.839V30.656H66.7649V42.8024H74.3347V45.839H63.4246ZM75.5524 45.839L82.0594 30.5475H85.1393L91.6463 45.839H88.1543L86.7661 42.4337H80.3459L78.9577 45.839H75.5524ZM81.5388 39.4838H85.5731L83.556 34.5602L81.5388 39.4838ZM100.13 46.0993C95.6615 46.0993 92.343 42.6506 92.343 38.2475C92.343 33.9312 95.5965 30.3957 100.26 30.3957C103.123 30.3957 104.728 31.4802 106.138 32.8684L104.142 35.1675C102.971 34.1047 101.973 33.4757 100.238 33.4757C97.6787 33.4757 95.8351 35.6013 95.8351 38.2475C95.8351 40.8503 97.6353 43.0193 100.238 43.0193C101.973 43.0193 103.036 42.3252 104.229 41.2407L106.355 43.5182C104.793 45.1883 103.058 46.0993 100.13 46.0993ZM109.029 45.839V30.656H112.369V37.2931L118.529 30.656H122.563L116.382 37.0979L122.845 45.839H118.833L114.126 39.3754L112.369 41.1973V45.839H109.029Z" fill="#2C2B31"/>
<path fill-rule="evenodd" clip-rule="evenodd" d="M142.325 38.5752C142.711 37.8421 143.618 37.5606 144.351 37.9464L151.5 41.7092L158.649 37.9464C159.382 37.5606 160.289 37.8421 160.675 38.5752C161.061 39.3083 160.78 40.2153 160.046 40.6012L152.199 44.7316C151.761 44.9618 151.239 44.9618 150.801 44.7316L142.954 40.6012C142.22 40.2153 141.939 39.3083 142.325 38.5752Z" fill="#2C2B31"/>
<path d="M75.1765 8.95899C73.6665 8.95899 72.5265 7.72899 72.5265 6.25899C72.5265 4.79899 73.6665 3.55899 75.1765 3.55899C76.1565 3.55899 76.7665 3.96899 77.2465 4.47899L76.7565 4.99899C76.3465 4.56899 75.8665 4.23899 75.1665 4.23899C74.1165 4.23899 73.3165 5.12899 73.3165 6.25899C73.3165 7.37899 74.1365 8.26899 75.2165 8.26899C75.8765 8.26899 76.3665 7.92899 76.7765 7.48899L77.2865 7.95899C76.7665 8.53899 76.1465 8.95899 75.1765 8.95899ZM80.773 8.95899C79.223 8.95899 78.093 7.73899 78.093 6.25899C78.093 4.79899 79.233 3.55899 80.793 3.55899C82.343 3.55899 83.483 4.77899 83.483 6.25899C83.483 7.71899 82.333 8.95899 80.773 8.95899ZM80.793 8.26899C81.913 8.26899 82.693 7.36899 82.693 6.25899C82.693 5.14899 81.863 4.23899 80.773 4.23899C79.653 4.23899 78.883 5.14899 78.883 6.25899C78.883 7.36899 79.703 8.26899 80.793 8.26899ZM84.9478 8.83899V1.53899H85.7178V8.83899H84.9478ZM89.8648 8.95899C88.3148 8.95899 87.1848 7.73899 87.1848 6.25899C87.1848 4.79899 88.3248 3.55899 89.8848 3.55899C91.4348 3.55899 92.5748 4.77899 92.5748 6.25899C92.5748 7.71899 91.4248 8.95899 89.8648 8.95899ZM89.8848 8.26899C91.0048 8.26899 91.7848 7.36899 91.7848 6.25899C91.7848 5.14899 90.9548 4.23899 89.8648 4.23899C88.7448 4.23899 87.9748 5.14899 87.9748 6.25899C87.9748 7.36899 88.7948 8.26899 89.8848 8.26899ZM93.9696 8.83899V3.66899H94.7396V5.01899C95.1196 4.15899 95.8696 3.53899 96.8496 3.57899V4.40899H96.7896C95.6596 4.40899 94.7396 5.21899 94.7396 6.77899V8.83899H93.9696Z" fill="#2C2B31"/>
</svg>
