<svg width="356" height="51" viewBox="0 0 356 51" fill="none" xmlns="http://www.w3.org/2000/svg">
<rect width="356" height="51" fill="#656565"/>
<rect width="390" height="1096" transform="translate(-17 -1004)" fill="#F0F0F0"/>
<rect y="0.624756" width="356" height="50" rx="15" fill="#37D997"/>
<path d="M101.521 35.3259V14.3259H110.941C113.341 14.3259 115.231 14.9859 116.431 16.1859C117.361 17.1159 117.841 18.2559 117.841 19.7259C117.841 22.2459 116.401 23.5959 114.841 24.4059C117.301 25.2459 119.011 26.6559 119.011 29.5659C119.011 33.3159 115.921 35.3259 111.241 35.3259H101.521ZM105.151 23.1759H110.191C112.561 23.1759 114.151 22.2459 114.151 20.2659C114.151 18.6159 112.831 17.5959 110.461 17.5959H105.151V23.1759ZM105.151 32.0559H111.271C113.791 32.0559 115.321 31.0659 115.321 29.1159C115.321 27.3459 113.911 26.2959 111.001 26.2959H105.151V32.0559ZM131.782 35.6559C126.322 35.6559 122.842 32.5059 122.842 26.4159V14.3259H126.532V26.2659C126.532 30.1659 128.542 32.2659 131.842 32.2659C135.112 32.2659 137.122 30.2859 137.122 26.4159V14.3259H140.812V26.2359C140.812 32.5059 137.272 35.6559 131.782 35.6559ZM152.057 35.3259V27.0459L143.717 14.3259H148.067L153.947 23.6259L159.887 14.3259H164.117L155.777 26.9559V35.3259H152.057ZM176.346 35.3259V14.3259H179.766L191.016 28.8459V14.3259H194.646V35.3259H191.556L179.976 20.3859V35.3259H176.346ZM210.067 35.6859C203.617 35.6859 199.117 30.7959 199.117 24.8259C199.117 18.9159 203.677 13.9659 210.127 13.9659C216.577 13.9659 221.077 18.8559 221.077 24.8259C221.077 30.7359 216.517 35.6859 210.067 35.6859ZM210.127 32.2959C214.297 32.2959 217.207 28.9659 217.207 24.8259C217.207 20.7459 214.237 17.3559 210.067 17.3559C205.897 17.3559 202.987 20.6859 202.987 24.8259C202.987 28.9059 205.957 32.2959 210.127 32.2959ZM230.092 35.4759L222.772 14.3259H226.762L231.772 29.8959L236.932 14.2659H240.052L245.212 29.8959L250.222 14.3259H254.092L246.772 35.4759H243.592L238.432 20.3859L233.272 35.4759H230.092Z" fill="white"/>
</svg>
